<svg width="220" height="294" viewBox="0 0 220 294" fill="none" xmlns="http://www.w3.org/2000/svg">
<path d="M29.7936 162.798C16.2553 154.753 6.03717 139.718 7.36374 124.044C19.741 135.871 35.9096 142.947 53.0087 144.018C59.6046 144.407 66.9814 144.154 71.8367 148.629C74.8579 151.413 76.2642 155.605 76.4949 159.703C76.7255 163.801 75.9033 167.878 75.0852 171.901L75.3667 172.886C59.6122 172.946 43.3318 170.843 29.7936 162.798Z" fill="#E6E6E6"/>
<path d="M7.69379 124.027C13.1182 135.867 22.1413 145.7 33.4814 152.128C35.9192 153.491 38.511 154.661 41.2652 155.204C43.9539 155.712 46.73 155.493 49.3049 154.568C51.7232 153.754 54.1024 152.641 56.6767 152.428C59.3903 152.203 61.9024 153.248 63.8761 155.079C66.2911 157.319 67.7558 160.292 69.0871 163.249C70.5652 166.532 72.0483 169.965 74.8823 172.326C75.2256 172.612 74.761 173.127 74.4182 172.842C69.4876 168.734 68.6828 161.855 64.7416 157.018C62.9025 154.76 60.371 153.043 57.3636 153.088C54.7338 153.128 52.2794 154.273 49.838 155.118C47.2745 156.006 44.7064 156.423 42.0001 156.033C39.2316 155.633 36.5886 154.561 34.1265 153.267C28.5654 150.291 23.5076 146.46 19.1384 141.915C14.123 136.755 10.0286 130.777 7.03236 124.238C6.84708 123.833 7.50972 123.625 7.69379 124.027Z" fill="white"/>
<path d="M29.7079 150.273C28.3693 152.026 26.4502 153.247 24.2932 153.718C22.1362 154.189 19.8818 153.879 17.9326 152.843C17.5389 152.633 17.8486 152.012 18.2428 152.223C20.0561 153.191 22.1562 153.479 24.1639 153.037C26.1716 152.594 27.9547 151.449 29.1914 149.809C29.4606 149.453 29.9755 149.919 29.7079 150.273Z" fill="white"/>
<path d="M48.1333 155.142C47.57 150.671 45.3394 146.576 41.8865 143.674C41.5441 143.386 42.0087 142.871 42.3506 143.158C45.9382 146.185 48.2507 150.451 48.8267 155.105C48.8813 155.549 48.1876 155.583 48.1333 155.142Z" fill="white"/>
<path d="M14.9841 136.429C15.6436 135.859 16.1508 135.134 16.4602 134.319C16.7696 133.504 16.8715 132.626 16.7567 131.762C16.6965 131.319 17.3903 131.285 17.4501 131.725C17.5724 132.68 17.4587 133.65 17.1189 134.551C16.7791 135.452 16.2234 136.256 15.5006 136.893C15.4375 136.959 15.3517 136.998 15.2606 137.003C15.1695 137.008 15.08 136.978 15.0103 136.919C14.9422 136.857 14.9013 136.771 14.8964 136.68C14.8915 136.588 14.923 136.498 14.9841 136.429Z" fill="white"/>
<path d="M51.1861 93.6775C51.2316 93.9529 51.277 94.2283 51.3277 94.5063C51.9582 98.2055 52.8885 101.847 54.1097 105.396C54.1997 105.672 54.2952 105.95 54.393 106.223C57.4263 114.741 62.0172 122.624 67.9324 129.469C70.2887 132.19 72.8489 134.729 75.591 137.063C79.3781 140.286 83.7411 143.48 86.1692 147.641C86.4274 148.072 86.6586 148.519 86.8615 148.979L76.549 172.467C76.4987 172.509 76.4537 172.553 76.4033 172.595L76.0345 173.551C75.8846 173.441 75.7316 173.323 75.5818 173.213C75.4946 173.149 75.4097 173.08 75.3225 173.016C75.2651 172.972 75.2078 172.928 75.1535 172.891C75.1343 172.876 75.1153 172.862 75.1014 172.849C75.0471 172.813 75.0005 172.773 74.9516 172.739C74.0944 172.082 73.2403 171.419 72.3893 170.748C72.384 170.746 72.384 170.746 72.3809 170.739C65.91 165.613 59.811 159.902 54.7738 153.449C54.6224 153.255 54.4654 153.059 54.3186 152.854C52.0643 149.932 50.0529 146.832 48.3045 143.583C47.3528 141.802 46.4921 139.973 45.7257 138.104C43.7546 133.272 42.5571 128.16 42.177 122.956C41.4209 112.582 43.9963 102.081 50.6703 94.2694C50.8412 94.0696 51.0098 93.8749 51.1861 93.6775Z" fill="#E6E6E6"/>
<path d="M51.4614 93.8609C48.6528 106.575 49.928 119.85 55.106 131.8C56.2309 134.353 57.5946 136.846 59.4663 138.935C61.3065 140.957 63.6554 142.451 66.2691 143.26C68.691 144.063 71.2614 144.605 73.4455 145.983C75.7476 147.434 77.1231 149.779 77.595 152.427C78.1725 155.668 77.5494 158.922 76.8293 162.083C76.0298 165.593 75.1437 169.226 75.9828 172.814C76.0845 173.249 75.4028 173.381 75.3013 172.947C73.8414 166.703 77.3469 160.727 77.1171 154.495C77.0099 151.588 76.0244 148.694 73.5959 146.923C71.4722 145.373 68.822 144.812 66.3628 144.02C63.7806 143.188 61.4786 141.977 59.5533 140.038C57.5838 138.055 56.1196 135.611 54.9343 133.097C52.2889 127.378 50.5606 121.278 49.8128 115.023C48.9197 107.888 49.2555 100.654 50.8058 93.6321C50.9019 93.1975 51.5569 93.4292 51.4614 93.8609Z" fill="white"/>
<path d="M53.2119 128.05C51.086 128.646 48.8173 128.467 46.8111 127.546C44.805 126.625 43.1919 125.023 42.2599 123.024C42.0728 122.619 42.6944 122.31 42.8818 122.715C43.7461 124.578 45.2489 126.071 47.1188 126.924C48.9887 127.778 51.1026 127.936 53.079 127.37C53.5086 127.247 53.6391 127.929 53.2119 128.05Z" fill="white"/>
<path d="M64.9875 143.014C67.2339 139.105 67.9223 134.495 66.9153 130.102C66.8152 129.667 67.4968 129.535 67.5968 129.969C68.6361 134.542 67.91 139.339 65.5634 143.401C65.3395 143.788 64.7648 143.399 64.9875 143.014Z" fill="white"/>
<path d="M49.8035 108.146C50.6741 108.087 51.5164 107.813 52.2547 107.348C52.993 106.884 53.6042 106.243 54.0334 105.485C54.2523 105.095 54.8268 105.485 54.6093 105.872C54.1312 106.708 53.4554 107.414 52.6408 107.929C51.8262 108.444 50.8977 108.752 49.9364 108.826C49.8464 108.841 49.7542 108.821 49.6786 108.77C49.6029 108.719 49.5495 108.641 49.5292 108.553C49.512 108.462 49.5312 108.369 49.5826 108.293C49.634 108.217 49.7133 108.164 49.8035 108.146Z" fill="white"/>
<path d="M86.2862 29.2796L103.681 232.586L68.8917 235.198V31.8663C73.0372 29.1275 78.9878 28.699 86.2862 29.2796Z" fill="#CCCCCC"/>
<path d="M172.148 29.2796L154.754 232.586L189.543 235.198V31.8663C185.397 29.1275 179.447 28.699 172.148 29.2796Z" fill="#CCCCCC"/>
<path d="M184.334 243.6H73.7306C71.9571 243.598 70.2568 242.894 69.0027 241.642C67.7487 240.39 67.0432 238.692 67.0413 236.921V34.8498C67.0433 33.0791 67.7487 31.3815 69.0028 30.1293C70.2568 28.8772 71.9571 28.1729 73.7306 28.1709H184.334C186.107 28.1729 187.808 28.8772 189.062 30.1293C190.316 31.3815 191.021 33.0791 191.023 34.8498V236.921C191.021 238.692 190.316 240.39 189.062 241.642C187.808 242.894 186.107 243.598 184.334 243.6ZM73.7306 30.388C72.5458 30.3893 71.4099 30.8598 70.5722 31.6963C69.7344 32.5328 69.2631 33.6669 69.2618 34.8498V236.921C69.2631 238.104 69.7344 239.238 70.5721 240.075C71.4099 240.911 72.5458 241.382 73.7306 241.383H184.334C185.519 241.382 186.654 240.911 187.492 240.075C188.33 239.238 188.801 238.104 188.803 236.921V34.8498C188.801 33.6669 188.33 32.5328 187.492 31.6963C186.654 30.8598 185.519 30.3893 184.334 30.388L73.7306 30.388Z" fill="#CCCCCC"/>
<path d="M189.913 61.7971H68.1516V64.0142H189.913V61.7971Z" fill="#CCCCCC"/>
<path d="M189.913 98.749H68.1516V100.966H189.913V98.749Z" fill="#CCCCCC"/>
<path d="M107.664 29.2795H105.444V130.158H107.664V29.2795Z" fill="#CCCCCC"/>
<path d="M152.621 29.2795H150.4V130.158H152.621V29.2795Z" fill="#CCCCCC"/>
<path d="M203.791 249.697H57.9739C55.3237 249.697 52.782 248.646 50.9081 246.775C49.0341 244.904 47.9813 242.366 47.9813 239.72C47.9813 237.074 49.0341 234.537 50.9081 232.666C52.782 230.795 55.3237 229.743 57.9739 229.743H203.791C206.442 229.743 208.983 230.795 210.857 232.666C212.731 234.537 213.784 237.074 213.784 239.72C213.784 242.366 212.731 244.904 210.857 246.775C208.983 248.646 206.442 249.697 203.791 249.697Z" fill="#CCCCCC"/>
<path d="M189.913 124.985H68.8917V132.375H189.913V124.985Z" fill="#CCCCCC"/>
<path d="M108.009 148.505L107.855 148.431C99.6053 144.452 88.8017 144.455 72.8246 148.444L72.654 148.486L72.6028 148.318C70.9126 142.785 68.998 136.518 72.5949 133.435C72.6453 124.387 80.5942 117.04 90.3578 117.04C100.119 117.04 108.067 124.383 108.121 133.429C113.471 137.513 110.921 143.549 108.095 148.358L108.009 148.505Z" fill="#2F2E41"/>
<path d="M158.716 129.131C158.568 129.864 158.261 130.556 157.816 131.158C157.372 131.76 156.8 132.257 156.142 132.614C155.484 132.972 154.756 133.181 154.008 133.227C153.261 133.273 152.512 133.155 151.815 132.88L122.66 162.133L120.059 153.05L149.015 125.885C149.554 124.746 150.492 123.845 151.653 123.351C152.813 122.857 154.114 122.806 155.31 123.206C156.505 123.606 157.513 124.43 158.14 125.522C158.768 126.614 158.973 127.898 158.716 129.131Z" fill="#FFB6B6"/>
<path d="M86.6593 157.293C86.6593 157.293 84.0141 163.278 90.541 166.969C97.0679 170.66 119.879 165.56 123.581 164.848C127.282 164.136 141.107 143.48 141.107 143.48L139.152 133.35L120.817 149.241L86.6593 157.293Z" fill="#345EA8"/>
<path d="M81.845 190.39L82.2151 197.411C82.2151 197.411 81.1228 203.63 82.0212 204.972C82.9128 206.307 107.243 206.476 107.243 206.476C107.243 206.476 108.851 197.823 110.236 190.249L81.845 190.39Z" fill="#FFB6B6"/>
<path d="M151.798 283.221L156.885 282.195L155.429 261.681L147.922 263.195L151.798 283.221Z" fill="#FFB6B6"/>
<path d="M159.084 256.525L163.813 254.402L157.679 234.775L150.699 237.909L159.084 256.525Z" fill="#FFB6B6"/>
<path d="M163.203 245.466L154.3 250.5L132.341 215.269C116.926 225.638 101.852 230.604 86.6563 233.254C81.5187 234.167 76.2805 233.704 75.2942 228.483C75.2481 228.239 75.2113 227.994 75.1839 227.747C74.5772 222.044 81.6822 214.735 82.5853 207.757L102.03 206.592L104.428 209.661L126.916 195.857C131.438 193.081 137.386 194.583 140.201 199.211C140.349 199.455 140.487 199.706 140.615 199.962L163.203 245.466Z" fill="#2F2E41"/>
<path d="M157.754 269.166L147.566 270.112L129.093 232.391C110.775 235.536 93.4935 236.544 78.5459 232.739C73.4849 231.468 70.3914 226.251 71.6362 221.085C71.6943 220.844 71.7616 220.605 71.838 220.368C73.6269 214.919 78.3098 211.063 81.9992 205.069L108.948 205.478L105.938 215.847L132.118 212.465C137.382 211.784 142.19 215.589 142.857 220.963C142.892 221.247 142.915 221.532 142.926 221.818L157.754 269.166Z" fill="#2F2E41"/>
<path d="M92.3677 143.142C98.4113 143.142 103.311 138.25 103.311 132.216C103.311 126.182 98.4113 121.29 92.3677 121.29C86.3241 121.29 81.4248 126.182 81.4248 132.216C81.4248 138.25 86.3241 143.142 92.3677 143.142Z" fill="#FFB6B6"/>
<path d="M85.9524 147.086L95.9861 148.265C96.4092 148.315 96.8062 148.495 97.1219 148.781C97.4376 149.066 97.6561 149.443 97.747 149.859L99.3427 157.149L109.29 168.845C109.29 168.845 112.861 175.531 111.522 183.11C110.183 190.688 109.594 196.319 109.594 196.319C109.594 196.319 82.9116 206.308 82.0186 204.971C81.1257 203.633 80.8359 197.559 80.8359 197.559L77.264 157.884C77.264 157.884 81.2824 151.197 83.5148 151.197C84.9555 151.148 84.7707 147.911 85.9524 147.086Z" fill="#345EA8"/>
<path d="M109.865 198.758C111.272 198.758 112.413 197.392 112.413 195.706C112.413 194.02 111.272 192.654 109.865 192.654C108.458 192.654 107.318 194.02 107.318 195.706C107.318 197.392 108.458 198.758 109.865 198.758Z" fill="#6C63FF"/>
<path d="M149.274 277.939L157.029 274.059L158.49 277.463L168.297 279.442C168.781 279.54 169.221 279.79 169.554 280.155C169.886 280.52 170.092 280.982 170.143 281.473C170.194 281.963 170.086 282.458 169.835 282.883C169.585 283.308 169.205 283.642 168.751 283.837L159.276 287.892L156.197 285.223L157.005 288.864L153.433 290.392L149.274 277.939Z" fill="#2F2E41"/>
<path d="M156.865 254.892L164.55 250.876L166.071 254.255L175.911 256.061C176.397 256.151 176.842 256.392 177.18 256.752C177.519 257.111 177.733 257.569 177.793 258.059C177.852 258.549 177.753 259.045 177.51 259.474C177.267 259.904 176.893 260.245 176.442 260.447L167.04 264.668L163.915 262.054L164.787 265.68L161.242 267.271L156.865 254.892Z" fill="#2F2E41"/>
<path d="M86.1157 128.789C83.2246 128.794 80.403 127.905 78.0381 126.245L77.9591 126.189V126.093C77.9623 123.301 79.0746 120.624 81.052 118.65C83.0294 116.676 85.7104 115.565 88.5068 115.562H92.948C95.7444 115.565 98.4254 116.676 100.403 118.65C102.38 120.624 103.492 123.301 103.496 126.093C103.493 126.732 103.24 127.345 102.791 127.801C102.343 128.257 101.734 128.519 101.094 128.533L86.3652 128.787C86.2821 128.788 86.1986 128.789 86.1157 128.789Z" fill="#2F2E41"/>
<path d="M104.236 124.071C105.652 123.254 105.889 121.017 104.764 119.073C103.64 117.128 101.581 116.214 100.165 117.03C98.7487 117.847 98.512 120.085 99.6362 122.029C100.76 123.973 102.82 124.887 104.236 124.071Z" fill="#2F2E41"/>
<path d="M82.0881 121.902C83.678 120.315 84.0295 118.092 82.8732 116.937C81.717 115.783 79.4908 116.134 77.901 117.721C76.3112 119.309 75.9597 121.531 77.1159 122.686C78.2722 123.84 80.4983 123.489 82.0881 121.902Z" fill="#2F2E41"/>
<path d="M178.935 221.799H168.013C167.766 221.798 167.523 221.851 167.299 221.955C167.075 222.058 166.877 222.209 166.718 222.396C166.315 222.323 165.9 222.345 165.508 222.462C165.115 222.579 164.756 222.788 164.46 223.07C164.164 223.353 163.939 223.701 163.804 224.087C163.669 224.474 163.628 224.886 163.683 225.291C163.739 225.697 163.89 226.083 164.124 226.418C164.358 226.754 164.669 227.029 165.03 227.222C165.392 227.414 165.794 227.519 166.203 227.526C166.613 227.533 167.018 227.444 167.386 227.264L168.292 230.203C168.399 230.552 168.616 230.857 168.909 231.073C169.203 231.29 169.558 231.406 169.923 231.406H177.025C177.39 231.406 177.745 231.29 178.039 231.073C178.332 230.856 178.549 230.552 178.656 230.203L180.566 224.004C180.645 223.749 180.663 223.479 180.618 223.217C180.573 222.954 180.467 222.705 180.308 222.491C180.149 222.276 179.942 222.102 179.704 221.982C179.466 221.861 179.202 221.799 178.935 221.799ZM166.257 226.787C165.766 226.787 165.296 226.593 164.949 226.246C164.602 225.9 164.407 225.43 164.407 224.94C164.407 224.45 164.602 223.98 164.949 223.633C165.296 223.287 165.766 223.092 166.257 223.092C166.291 223.092 166.322 223.1 166.356 223.102C166.282 223.399 166.291 223.711 166.382 224.004L167.163 226.541C166.888 226.7 166.575 226.785 166.257 226.787Z" fill="#3F3D56"/>
<path d="M130.162 213.777C129.416 213.846 128.664 213.751 127.959 213.498C127.254 213.246 126.613 212.842 126.081 212.315C125.55 211.788 125.14 211.152 124.881 210.45C124.623 209.748 124.521 208.998 124.584 208.253L88.1527 188.76L96.1212 183.666L130.493 203.567C131.74 203.756 132.874 204.395 133.681 205.363C134.487 206.331 134.91 207.561 134.869 208.819C134.829 210.078 134.327 211.278 133.459 212.191C132.592 213.105 131.418 213.67 130.162 213.777Z" fill="#FFB6B6"/>
<path d="M82.4678 152.938C82.4678 152.938 75.9665 152.125 74.298 159.427C72.6294 166.728 84.0669 187.084 85.8121 190.42C87.5572 193.756 111.342 201.052 111.342 201.052L120.501 196.275L99.9938 183.299L82.4678 152.938Z" fill="#345EA8"/>
<path d="M128.292 122.768H130.513C131.592 122.768 132.628 123.196 133.391 123.958C134.155 124.721 134.584 125.755 134.584 126.833H124.221C124.221 125.755 124.65 124.721 125.413 123.958C126.177 123.196 127.212 122.768 128.292 122.768Z" fill="#CCCCCC"/>
<path d="M57.8783 46.9298C70.0281 46.9298 79.8774 37.0958 79.8774 24.9649C79.8774 12.834 70.0281 3 57.8783 3C45.7285 3 35.8792 12.834 35.8792 24.9649C35.8792 37.0958 45.7285 46.9298 57.8783 46.9298Z" fill="#FAC499"/>
<path d="M125.234 23.8203C119.412 17.7223 112.651 12.1593 104.646 9.21968C102.416 8.39734 100.105 7.81726 97.7503 7.48947C97.7314 7.48689 97.7135 7.49071 97.6947 7.48919C97.6564 7.47934 97.6175 7.47173 97.5784 7.46639C94.2858 7.04759 90.9438 7.24904 87.7256 8.0603C86.1519 8.45461 84.6166 8.98861 83.1381 9.65593C81.6543 10.3787 80.2167 11.1921 78.8334 12.0917C75.9053 13.8417 72.6815 15.0425 69.321 15.6349C67.6342 15.9381 65.9257 16.1055 64.212 16.1355C62.725 16.1653 61.3228 16.2169 59.914 16.7532C58.4091 17.3182 57.0573 18.2266 55.9665 19.4059C54.8756 20.5852 54.076 22.0027 53.6313 23.5454C53.597 23.6827 53.6073 23.8274 53.6608 23.9586C53.7142 24.0897 53.808 24.2005 53.9286 24.2749C54.3097 24.5474 54.6812 24.8566 55.0816 25.0994C55.4378 25.2622 55.8182 25.3658 56.2079 25.4061C56.8445 25.5402 57.4819 25.6704 58.1201 25.7967C60.4712 26.2618 62.8321 26.6735 65.2027 27.0319C69.9997 27.7569 74.8226 28.2676 79.6714 28.564C89.3848 29.1515 99.1317 28.859 108.792 27.6902C114.222 27.0336 119.614 26.1024 124.949 24.9C125.057 24.8685 125.155 24.8097 125.233 24.7292C125.312 24.6487 125.368 24.5493 125.397 24.4407C125.426 24.332 125.426 24.2178 125.397 24.1091C125.369 24.0004 125.313 23.9009 125.234 23.8203Z" fill="#E6E6E6"/>
<path d="M58.9224 38.5063C56.6927 37.684 54.3807 37.1039 52.0266 36.7761C52.0077 36.7735 51.9897 36.7773 51.9709 36.7758C51.9326 36.766 51.8938 36.7583 51.8546 36.753C48.562 36.3342 45.22 36.5357 42.0019 37.3469C40.4281 37.7412 38.8928 38.2752 37.4143 38.9426C35.9306 39.6653 34.493 40.4787 33.1096 41.3783C30.1816 43.1283 26.9578 44.3291 23.5972 44.9215C21.9104 45.2247 20.2019 45.3921 18.4882 45.4221C17.0013 45.4519 15.599 45.5035 14.1902 46.0399C12.6853 46.6049 11.3335 47.5133 10.2427 48.6925C9.15189 49.8718 8.35223 51.2893 7.90754 52.8319C7.87326 52.9693 7.88359 53.114 7.93703 53.2451C7.99048 53.3763 8.08427 53.4871 8.20489 53.5615C8.58598 53.834 8.95749 54.1432 9.35789 54.386C9.71407 54.5488 10.0945 54.6524 10.4841 54.6927C11.1207 54.8268 11.7581 54.957 12.3963 55.0833C14.7474 55.5484 17.1083 55.9601 19.479 56.3184C24.276 57.0435 29.0988 57.5542 33.9476 57.8506C43.6611 58.4381 53.4079 58.1456 63.0685 56.9768C68.4979 56.3202 73.8904 55.389 79.2252 54.1866C79.3332 54.1551 79.4312 54.0962 79.5097 54.0158C79.5882 53.9353 79.6446 53.8359 79.6733 53.7273C79.702 53.6186 79.7022 53.5044 79.6737 53.3957C79.6452 53.287 79.589 53.1875 79.5107 53.1069C73.6887 47.0089 66.927 41.446 58.9224 38.5063Z" fill="#E6E6E6"/>
<path opacity="0.15" d="M172.251 191.498C172.15 191.947 172.073 192.401 172.022 192.859C171.333 190.685 171.233 188.367 171.732 186.142C171.809 185.802 171.867 185.457 171.912 185.111C172.596 187.171 172.713 189.377 172.251 191.498Z" fill="black"/>
<path opacity="0.15" d="M172.531 175.469C171.435 175.621 170.323 175.626 169.225 175.485C168.938 174.943 168.69 174.382 168.483 173.805C169.705 174.629 171.082 175.195 172.531 175.469Z" fill="black"/>
<path opacity="0.15" d="M169.137 170.176C168.733 171.21 168.464 172.291 168.337 173.393C168 172.343 167.8 171.254 167.745 170.153L167.735 169.976L167.91 170.009C168.316 170.086 168.726 170.141 169.137 170.176Z" fill="black"/>
</svg>
